<svg width="20" height="22" viewBox="0 0 20 22" fill="none" xmlns="http://www.w3.org/2000/svg">
<path d="M7.75025 17.75C7.75025 18.3467 7.98748 18.9189 8.40943 19.3408C8.83138 19.7627 9.40358 20 10.0003 20C10.5969 19.9999 11.1692 19.7627 11.5911 19.3408C12.0129 18.9189 12.2503 18.3467 12.2503 17.75H7.75025ZM15.2434 9.18848C15.2434 7.46332 14.8064 6.3702 14.2532 5.64648C13.6937 4.91464 12.9603 4.4877 12.2454 4.19336V4.19238C11.8595 4.03343 11.4827 3.67952 11.346 3.21875L11.345 3.2168C11.1288 2.48126 10.5776 2.00014 10.0003 2C9.42282 2 8.87089 2.4816 8.65748 3.21582V3.21777C8.51985 3.68665 8.13798 4.03533 7.75611 4.19238L7.75709 4.19336C7.04058 4.48842 6.30736 4.9145 5.7483 5.64551C5.19558 6.36838 4.75807 7.46114 4.75807 9.18848L4.7483 9.93164C4.70048 11.5863 4.48936 12.704 4.12428 13.5879C3.70855 14.5943 3.10435 15.2495 2.53346 15.9482C2.50368 15.9847 2.49546 16.0146 2.49342 16.0371C2.49114 16.0626 2.49602 16.0927 2.51197 16.124C2.53984 16.1786 2.60881 16.25 2.76295 16.25H17.2415C17.39 16.25 17.4582 16.1811 17.4866 16.125C17.517 16.0648 17.5132 16.005 17.4661 15.9473C16.8954 15.2489 16.2915 14.594 15.8762 13.5879C15.4593 12.5777 15.2434 11.2618 15.2434 9.18848ZM16.7434 9.18848C16.7434 11.1766 16.9541 12.2672 17.2629 13.0156C17.4957 13.5795 17.7914 13.9774 18.1917 14.4678L18.6282 14.999L18.7112 15.1074C19.5071 16.2419 18.6353 17.75 17.2415 17.75H13.7503C13.7503 18.7445 13.3548 19.6981 12.6516 20.4014C11.9484 21.1046 10.9947 21.4999 10.0003 21.5C9.00569 21.5 8.05117 21.1046 7.34791 20.4014C6.64487 19.6981 6.25025 18.7444 6.25025 17.75H2.76295C1.32694 17.75 0.430027 16.1515 1.37135 14.999C2.00419 14.2245 2.42684 13.7669 2.73756 13.0146C3.04669 12.2661 3.25692 11.1755 3.25807 9.1875C3.2582 7.19243 3.76994 5.76354 4.55689 4.73438C5.33788 3.71319 6.33716 3.15611 7.1858 2.80664L7.19752 2.7998C7.20499 2.79464 7.21266 2.78782 7.219 2.78125C7.22136 2.77879 7.22252 2.77609 7.22389 2.77441C7.55978 1.64833 8.54369 0.5 10.0003 0.5C11.4561 0.500135 12.4376 1.64727 12.7766 2.77051C12.7782 2.77273 12.7809 2.77655 12.7854 2.78125C12.7923 2.78848 12.8005 2.79563 12.8079 2.80078L12.8167 2.80664L13.1409 2.94727C13.9111 3.30199 14.7611 3.84135 15.4446 4.73535C16.2317 5.76499 16.7434 7.1944 16.7434 9.18848Z" fill="#0D8847"/>
</svg>
