<svg width="78" height="78" viewBox="0 0 78 78" fill="none" xmlns="http://www.w3.org/2000/svg">
<path d="M38.9988 28L47.3681 19.543C47.8841 19.0322 48.2946 18.4195 48.575 17.7415C48.8555 17.0635 49 16.3342 49 15.5973C49 14.8605 48.8555 14.1312 48.575 13.4532C48.2946 12.7752 47.8841 12.1625 47.3681 11.6517C46.3278 10.5949 44.9249 10.0023 43.4632 10.0023C42.0015 10.0023 40.5987 10.5949 39.5584 11.6517L38.9988 12.2122L38.4391 11.6491C37.3993 10.5925 35.9968 10 34.5355 10C33.0743 10 31.6718 10.5925 30.6319 11.6491C30.1159 12.1599 29.7054 12.7726 29.425 13.4506C29.1445 14.1286 29 14.8579 29 15.5948C29 16.3316 29.1445 17.0609 29.425 17.7389C29.7054 18.4169 30.1159 19.0296 30.6319 19.5404L38.9988 28Z" fill="#11B55F"/>
<path d="M55.25 34.25C50.1842 34.2732 46.6533 34.9105 44.2783 36.0452C42.0259 37.1214 40.7982 38.6489 40.25 40.6693V60.0622C43.0978 57.9554 47.4639 56.75 55.25 56.75V34.25ZM57.75 56.75C57.75 57.413 57.4864 58.0487 57.0176 58.5176C56.5487 58.9864 55.913 59.25 55.25 59.25C45.3981 59.25 42.0117 61.2372 39.9766 63.7812C39.7393 64.0778 39.3797 64.25 39 64.25C38.6202 64.2499 38.2606 64.0763 38.0234 63.7796C36.0021 61.2508 32.6006 59.25 22.75 59.25C21.996 59.25 21.3355 58.9301 20.8831 58.3988C20.4469 57.886 20.25 57.2348 20.25 56.5986V34.25C20.2494 33.9223 20.314 33.5976 20.4388 33.2946C20.5642 32.9903 20.7481 32.7135 20.9808 32.4808L21.1631 32.3148C21.3533 32.1589 21.5665 32.0328 21.7946 31.9388C22.099 31.8134 22.4256 31.7487 22.7549 31.75L23.7184 31.7614C28.4573 31.8566 32.1116 32.5054 34.7992 33.7894C36.6648 34.6807 38.0511 35.8749 39 37.3555C39.9489 35.8749 41.3352 34.6807 43.2009 33.7894C46.0677 32.4197 50.0352 31.7733 55.2451 31.75L55.4909 31.7614C55.6542 31.7769 55.8155 31.8086 55.9727 31.8558L56.2054 31.9388L56.4284 32.043C56.5731 32.1201 56.7101 32.2109 56.8369 32.3148L57.0192 32.4808L57.1852 32.6631C57.3411 32.8532 57.4672 33.0664 57.5612 33.2946C57.686 33.5976 57.7506 33.9223 57.75 34.25V56.75ZM22.75 56.5986C22.75 56.6735 22.7637 56.7224 22.7744 56.75C30.5399 56.7525 34.9076 57.9646 37.75 60.0638V40.6693C37.2018 38.6489 35.9741 37.1214 33.7217 36.0452C31.3467 34.9105 27.8158 34.2732 22.75 34.25V56.5986Z" fill="black"/>
</svg>
