<svg width="32" height="32" viewBox="0 0 32 32" fill="none" xmlns="http://www.w3.org/2000/svg">
<path d="M4.46227 28.7703H27.5371C30.3228 28.7703 31.7428 27.3771 31.7428 24.6183V10.596C31.7428 7.83713 30.3228 6.45771 27.5371 6.45771H24.4034C23.3588 6.45771 23.0377 6.24342 22.4348 5.57371L21.3497 4.36799C20.6937 3.63199 20.0108 3.22971 18.6177 3.22971H13.2874C11.908 3.22971 11.2246 3.63199 10.5554 4.36799L9.47027 5.57371C8.88112 6.22971 8.54627 6.45771 7.5017 6.45771H4.4617C1.67598 6.45771 0.255981 7.83713 0.255981 10.596V24.6183C0.255981 27.3771 1.67655 28.7703 4.46227 28.7703ZM4.5017 26.6137C3.17598 26.6137 2.41255 25.904 2.41255 24.5108V10.7166C2.41255 9.32342 3.17598 8.61371 4.5017 8.61371H8.03712C9.24284 8.61371 9.8857 8.38628 10.5554 7.63656L11.6131 6.45771C12.3766 5.60056 12.7651 5.38628 13.9571 5.38628H17.948C19.14 5.38628 19.5286 5.60056 20.292 6.45771L21.3497 7.63599C22.0194 8.38628 22.6623 8.61371 23.868 8.61371H27.4971C28.8228 8.61371 29.5868 9.32342 29.5868 10.7166V24.5108C29.5868 25.904 28.8234 26.6137 27.4971 26.6137H4.5017ZM15.9931 24.4846C16.9553 24.4873 17.9084 24.2996 18.7977 23.9322C19.687 23.5649 20.4947 23.0251 21.1744 22.3442C21.8541 21.6632 22.3923 20.8544 22.758 19.9645C23.1237 19.0745 23.3097 18.121 23.3051 17.1588C23.3051 13.0868 20.064 9.83313 15.9926 9.83313C11.948 9.83313 8.6937 13.0868 8.6937 17.1588C8.6937 21.2297 11.948 24.4846 15.9926 24.4846M25.6217 13.8903C26.5326 13.8903 27.2823 13.1543 27.2823 12.2434C27.2823 11.803 27.1073 11.3806 26.7959 11.0692C26.4845 10.7578 26.0621 10.5828 25.6217 10.5828C25.1813 10.5828 24.7589 10.7578 24.4475 11.0692C24.1361 11.3806 23.9611 11.803 23.9611 12.2434C23.9611 13.1543 24.7108 13.8903 25.6217 13.8903ZM15.9931 22.4491C13.0868 22.4491 10.7166 20.092 10.7166 17.1588C10.7166 14.2257 13.0737 11.8691 15.9931 11.8691C16.688 11.8683 17.3763 12.0046 18.0185 12.2701C18.6607 12.5356 19.2442 12.9252 19.7356 13.4166C20.227 13.9079 20.6166 14.4914 20.8822 15.1335C21.1478 15.7757 21.2842 16.4639 21.2834 17.1588C21.2842 17.8538 21.148 18.5421 20.8824 19.1843C20.6168 19.8266 20.2272 20.4101 19.7358 20.9015C19.2444 21.3929 18.6608 21.7826 18.0186 22.0481C17.3764 22.3137 16.6881 22.45 15.9931 22.4491Z" fill="black"/>
</svg>
