<svg width="79" height="78" viewBox="0 0 79 78" fill="none" xmlns="http://www.w3.org/2000/svg">
<path d="M34.7877 67.3087C49.1378 71.1538 63.9003 62.2543 67.8364 47.5646C71.7725 32.875 63.4376 17.7864 49.0874 13.9413C34.7373 10.0962 19.9747 18.9958 16.0387 33.6854C12.1026 48.3751 20.4375 63.4636 34.7877 67.3087Z" fill="#021024" fill-opacity="0.1"/>
<path d="M64.6417 45.519C60.9253 59.3891 47.0199 67.7144 33.5832 64.1141C20.1465 60.5137 12.2667 46.3511 15.9832 32.481C19.6997 18.6109 33.6051 10.2856 47.0418 13.8859C60.4785 17.4863 68.3582 31.6489 64.6417 45.519Z" fill="#B96F00"/>
<path fill-rule="evenodd" clip-rule="evenodd" d="M66.2114 45.9397C62.2753 60.6294 47.5128 69.5289 33.1626 65.6838C18.8124 61.8387 10.4775 46.7502 14.4136 32.0605C18.3497 17.3709 33.1122 8.4713 47.4624 12.3164C61.8125 16.1615 70.1475 31.25 66.2114 45.9397ZM33.5832 64.1142C47.0199 67.7145 60.9253 59.3892 64.6417 45.5191C68.3582 31.649 60.4785 17.4864 47.0418 13.886C33.6051 10.2857 19.6997 18.611 15.9832 32.4811C12.2667 46.3512 20.1465 60.5138 33.5832 64.1142Z" fill="#975100"/>
<path d="M63.0167 43.894C59.3003 57.7641 45.3949 66.0894 31.9582 62.4891C18.5215 58.8887 10.6417 44.7261 14.3582 30.856C18.0747 16.9859 31.9801 8.6606 45.4168 12.2609C58.8535 15.8613 66.7332 30.0239 63.0167 43.894Z" fill="#F9B300"/>
<path fill-rule="evenodd" clip-rule="evenodd" d="M64.5864 44.3147C60.6503 59.0044 45.8878 67.9039 31.5376 64.0588C17.1874 60.2137 8.85252 45.1252 12.7886 30.4355C16.7247 15.7459 31.4872 6.8463 45.8374 10.6914C60.1875 14.5365 68.5225 29.625 64.5864 44.3147ZM31.9582 62.4892C45.3949 66.0895 59.3003 57.7642 63.0167 43.8941C66.7332 30.024 58.8535 15.8614 45.4168 12.261C31.9801 8.6607 18.0747 16.986 14.3582 30.8561C10.6417 44.7262 18.5215 58.8888 31.9582 62.4892Z" fill="#975100"/>
<path d="M58.3079 42.6324C55.2882 53.9018 44.056 60.6838 33.2199 57.7803C22.3839 54.8768 16.0475 43.3873 19.0671 32.1178C22.0868 20.8484 33.319 14.0664 44.155 16.9699C54.9911 19.8734 61.3275 31.3629 58.3079 42.6324Z" fill="#FFCF23"/>
<path fill-rule="evenodd" clip-rule="evenodd" d="M59.8775 43.0529C56.6413 55.1307 44.5597 62.5011 32.7994 59.3499C21.039 56.1987 14.2613 43.775 17.4975 31.6972C20.7337 19.6195 32.8153 12.2491 44.5756 15.4003C56.336 18.5514 63.1137 30.9751 59.8775 43.0529ZM33.2199 57.7802C44.056 60.6838 55.2882 53.9018 58.3079 42.6323C61.3275 31.3629 54.9911 19.8734 44.155 16.9699C33.319 14.0664 22.0868 20.8483 19.0671 32.1178C16.0475 43.3873 22.3839 54.8767 33.2199 57.7802Z" fill="#DF8D12"/>
<path fill-rule="evenodd" clip-rule="evenodd" d="M53.7707 22.9073C51.5384 20.9179 48.8384 19.4144 45.78 18.5949C34.944 15.6914 23.7117 22.4734 20.6921 33.7428C18.7435 41.015 20.6909 48.3787 25.2292 53.4679C19.5523 48.4087 16.8997 40.2066 19.0671 32.1178C22.0867 20.8484 33.319 14.0664 44.155 16.9699C47.9986 17.9998 51.2761 20.1099 53.7707 22.9073Z" fill="#FFDD65"/>
<path fill-rule="evenodd" clip-rule="evenodd" d="M16.3753 29.6049C15.955 29.4479 15.7415 28.9798 15.8986 28.5594C18.7031 21.0543 24.9837 15.246 32.7839 13.0931C33.2164 12.9737 33.6639 13.2276 33.7833 13.6602C33.9026 14.0927 33.6488 14.5402 33.2162 14.6596C25.922 16.6727 20.0443 22.1074 17.4208 29.1282C17.2637 29.5486 16.7956 29.762 16.3753 29.6049Z" fill="#FFD363"/>
<path fill-rule="evenodd" clip-rule="evenodd" d="M58.9317 49.6881C59.311 49.9278 59.4243 50.4296 59.1847 50.809C57.284 53.8177 54.764 56.3957 51.8035 58.3641C51.4298 58.6126 50.9255 58.5111 50.677 58.1374C50.4286 57.7637 50.5301 57.2594 50.9037 57.0109C53.6741 55.169 56.0325 52.7563 57.8108 49.9411C58.0505 49.5617 58.5523 49.4485 58.9317 49.6881Z" fill="#FFDB5B"/>
<path fill-rule="evenodd" clip-rule="evenodd" d="M25.3257 18.5511C25.3255 18.5512 25.3258 18.551 25.3257 18.5511L24.875 17.875C25.3257 18.5511 25.3256 18.5512 25.3257 18.5511L25.3227 18.5531L25.3063 18.5643C25.2909 18.5748 25.2669 18.5914 25.235 18.6138C25.1713 18.6587 25.0763 18.727 24.9562 18.817C24.7159 18.9973 24.3766 19.2638 23.9881 19.6037C23.2066 20.2875 22.2474 21.25 21.4885 22.3882C21.2396 22.7616 20.7351 22.8625 20.3618 22.6136C19.9884 22.3647 19.8875 21.8602 20.1364 21.4869C21.0026 20.1876 22.0746 19.1188 22.9181 18.3808C23.342 18.0098 23.7137 17.7176 23.9812 17.517C24.1151 17.4166 24.2232 17.3389 24.2991 17.2854C24.3371 17.2587 24.367 17.238 24.3881 17.2235L24.4131 17.2065L24.4205 17.2016L24.4228 17.2L24.4237 17.1994C24.4238 17.1993 24.4243 17.199 24.875 17.875L24.4237 17.1994C24.797 16.9505 25.3021 17.051 25.551 17.4244C25.7998 17.7976 25.6986 18.3021 25.3257 18.5511Z" fill="#FFE9AF"/>
<path fill-rule="evenodd" clip-rule="evenodd" d="M28.5757 22.6136C28.5755 22.6137 28.5758 22.6135 28.5757 22.6136L28.125 21.9375C28.5757 22.6136 28.5756 22.6137 28.5757 22.6136L28.5727 22.6156L28.5563 22.6268C28.5409 22.6373 28.5169 22.6539 28.485 22.6763C28.4213 22.7212 28.3263 22.7895 28.2062 22.8795C27.9659 23.0598 27.6266 23.3263 27.2381 23.6662C26.4566 24.35 25.4974 25.3125 24.7385 26.4507C24.4896 26.8241 23.9851 26.925 23.6118 26.6761C23.2384 26.4272 23.1375 25.9227 23.3864 25.5494C24.2526 24.2501 25.3246 23.1813 26.1681 22.4433C26.592 22.0723 26.9637 21.7801 27.2312 21.5795C27.3651 21.4791 27.4732 21.4014 27.5491 21.3479C27.5871 21.3212 27.617 21.3005 27.6381 21.286L27.6631 21.269L27.6705 21.2641L27.6728 21.2625L27.6737 21.2619C27.6738 21.2618 27.6743 21.2615 28.125 21.9375L27.6737 21.2619C28.047 21.013 28.5521 21.1135 28.801 21.4869C29.0498 21.8601 28.9486 22.3646 28.5757 22.6136Z" fill="white"/>
</svg>
