<svg width="21" height="20" viewBox="0 0 21 20" fill="none" xmlns="http://www.w3.org/2000/svg">
<path d="M11.3487 0.751734C11.1237 0.526769 10.8185 0.400391 10.5003 0.400391C10.1821 0.400391 9.87693 0.526769 9.65189 0.751734L1.25189 9.15174C1.0333 9.37806 0.91235 9.68118 0.915084 9.99582C0.917819 10.3105 1.04402 10.6114 1.26651 10.8339C1.489 11.0564 1.78998 11.1826 2.10461 11.1853C2.41925 11.1881 2.72237 11.0671 2.94869 10.8485L3.30029 10.4969V18.4001C3.30029 18.7184 3.42672 19.0236 3.65177 19.2487C3.87681 19.4737 4.18203 19.6001 4.50029 19.6001H6.90029C7.21855 19.6001 7.52378 19.4737 7.74882 19.2487C7.97387 19.0236 8.10029 18.7184 8.10029 18.4001V16.0001C8.10029 15.6819 8.22672 15.3767 8.45177 15.1516C8.67681 14.9266 8.98203 14.8001 9.30029 14.8001H11.7003C12.0186 14.8001 12.3238 14.9266 12.5488 15.1516C12.7739 15.3767 12.9003 15.6819 12.9003 16.0001V18.4001C12.9003 18.7184 13.0267 19.0236 13.2518 19.2487C13.4768 19.4737 13.782 19.6001 14.1003 19.6001H16.5003C16.8186 19.6001 17.1238 19.4737 17.3488 19.2487C17.5739 19.0236 17.7003 18.7184 17.7003 18.4001V10.4969L18.0519 10.8485C18.2782 11.0671 18.5813 11.1881 18.896 11.1853C19.2106 11.1826 19.5116 11.0564 19.7341 10.8339C19.9566 10.6114 20.0828 10.3105 20.0855 9.99582C20.0882 9.68118 19.9673 9.37806 19.7487 9.15174L11.3487 0.751734Z" fill="#6F6F6F"/>
</svg>
