<svg width="73" height="73" viewBox="0 0 73 73" fill="none" xmlns="http://www.w3.org/2000/svg">
<path d="M12.5 59C12.5 57.0109 13.2902 55.1032 14.6967 53.6967C16.1032 52.2902 18.0109 51.5 20 51.5H60.5" stroke="#6F6F6F" stroke-width="4" stroke-linecap="round" stroke-linejoin="round"/>
<path d="M12.5 59C12.5 57.0109 13.2902 55.1032 14.6967 53.6967C16.1032 52.2902 18.0109 51.5 20 51.5H60.5" stroke="black" stroke-opacity="0.2" stroke-width="4" stroke-linecap="round" stroke-linejoin="round"/>
<path d="M20 6.5H58.5C59.6046 6.5 60.5 7.39543 60.5 8.5V64.5C60.5 65.6046 59.6046 66.5 58.5 66.5H20C18.0109 66.5 16.1032 65.7098 14.6967 64.3033C13.2902 62.8968 12.5 60.9891 12.5 59V14C12.5 12.0109 13.2902 10.1032 14.6967 8.6967C16.1032 7.29018 18.0109 6.5 20 6.5Z" stroke="#6F6F6F" stroke-width="4" stroke-linecap="round" stroke-linejoin="round"/>
<path d="M20 6.5H58.5C59.6046 6.5 60.5 7.39543 60.5 8.5V64.5C60.5 65.6046 59.6046 66.5 58.5 66.5H20C18.0109 66.5 16.1032 65.7098 14.6967 64.3033C13.2902 62.8968 12.5 60.9891 12.5 59V14C12.5 12.0109 13.2902 10.1032 14.6967 8.6967C16.1032 7.29018 18.0109 6.5 20 6.5Z" stroke="black" stroke-opacity="0.2" stroke-width="4" stroke-linecap="round" stroke-linejoin="round"/>
<path d="M23.5938 14.5625C23.3202 14.5625 23.0579 14.6711 22.8645 14.8645C22.6711 15.0579 22.5625 15.3202 22.5625 15.5938V21.7812C22.5625 22.0548 22.4539 22.3171 22.2605 22.5105C22.0671 22.7039 21.8048 22.8125 21.5312 22.8125C21.2577 22.8125 20.9954 22.7039 20.802 22.5105C20.6086 22.3171 20.5 22.0548 20.5 21.7812V15.5938C20.5 14.7732 20.8259 13.9863 21.4061 13.4061C21.9863 12.8259 22.7732 12.5 23.5938 12.5H29.7812C30.0548 12.5 30.3171 12.6086 30.5105 12.802C30.7039 12.9954 30.8125 13.2577 30.8125 13.5312C30.8125 13.8048 30.7039 14.0671 30.5105 14.2605C30.3171 14.4539 30.0548 14.5625 29.7812 14.5625H23.5938ZM43.1875 13.5312C43.1875 13.2577 43.2961 12.9954 43.4895 12.802C43.6829 12.6086 43.9452 12.5 44.2188 12.5H50.4062C51.2268 12.5 52.0137 12.8259 52.5939 13.4061C53.1741 13.9863 53.5 14.7732 53.5 15.5938V21.7812C53.5 22.0548 53.3913 22.3171 53.198 22.5105C53.0046 22.7039 52.7423 22.8125 52.4688 22.8125C52.1952 22.8125 51.9329 22.7039 51.7395 22.5105C51.5461 22.3171 51.4375 22.0548 51.4375 21.7812V15.5938C51.4375 15.3202 51.3289 15.0579 51.1355 14.8645C50.9421 14.6711 50.6798 14.5625 50.4062 14.5625H44.2188C43.9452 14.5625 43.6829 14.4539 43.4895 14.2605C43.2961 14.0671 43.1875 13.8048 43.1875 13.5312ZM21.5312 35.1875C21.8048 35.1875 22.0671 35.2961 22.2605 35.4895C22.4539 35.6829 22.5625 35.9452 22.5625 36.2188V42.4062C22.5625 42.6798 22.6711 42.9421 22.8645 43.1355C23.0579 43.3289 23.3202 43.4375 23.5938 43.4375H29.7812C30.0548 43.4375 30.3171 43.5461 30.5105 43.7395C30.7039 43.9329 30.8125 44.1952 30.8125 44.4688C30.8125 44.7423 30.7039 45.0046 30.5105 45.198C30.3171 45.3913 30.0548 45.5 29.7812 45.5H23.5938C22.7732 45.5 21.9863 45.1741 21.4061 44.5939C20.8259 44.0137 20.5 43.2268 20.5 42.4062V36.2188C20.5 35.9452 20.6086 35.6829 20.802 35.4895C20.9954 35.2961 21.2577 35.1875 21.5312 35.1875ZM52.4688 35.1875C52.7423 35.1875 53.0046 35.2961 53.198 35.4895C53.3913 35.6829 53.5 35.9452 53.5 36.2188V42.4062C53.5 43.2268 53.1741 44.0137 52.5939 44.5939C52.0137 45.1741 51.2268 45.5 50.4062 45.5H44.2188C43.9452 45.5 43.6829 45.3913 43.4895 45.198C43.2961 45.0046 43.1875 44.7423 43.1875 44.4688C43.1875 44.1952 43.2961 43.9329 43.4895 43.7395C43.6829 43.5461 43.9452 43.4375 44.2188 43.4375H50.4062C50.6798 43.4375 50.9421 43.3289 51.1355 43.1355C51.3289 42.9421 51.4375 42.6798 51.4375 42.4062V36.2188C51.4375 35.9452 51.5461 35.6829 51.7395 35.4895C51.9329 35.2961 52.1952 35.1875 52.4688 35.1875ZM26.6875 21.7812C26.6875 21.5077 26.7961 21.2454 26.9895 21.052C27.1829 20.8586 27.4452 20.75 27.7188 20.75C27.9923 20.75 28.2546 20.8586 28.448 21.052C28.6414 21.2454 28.75 21.5077 28.75 21.7812V36.2188C28.75 36.4923 28.6414 36.7546 28.448 36.948C28.2546 37.1414 27.9923 37.25 27.7188 37.25C27.4452 37.25 27.1829 37.1414 26.9895 36.948C26.7961 36.7546 26.6875 36.4923 26.6875 36.2188V21.7812ZM30.8125 21.7812C30.8125 21.5077 30.9211 21.2454 31.1145 21.052C31.3079 20.8586 31.5702 20.75 31.8438 20.75C32.1173 20.75 32.3796 20.8586 32.573 21.052C32.7664 21.2454 32.875 21.5077 32.875 21.7812V36.2188C32.875 36.4923 32.7664 36.7546 32.573 36.948C32.3796 37.1414 32.1173 37.25 31.8438 37.25C31.5702 37.25 31.3079 37.1414 31.1145 36.948C30.9211 36.7546 30.8125 36.4923 30.8125 36.2188V21.7812ZM34.9375 21.7812C34.9375 21.5077 35.0461 21.2454 35.2395 21.052C35.4329 20.8586 35.6952 20.75 35.9688 20.75C36.2423 20.75 36.5046 20.8586 36.698 21.052C36.8913 21.2454 37 21.5077 37 21.7812V36.2188C37 36.4923 36.8913 36.7546 36.698 36.948C36.5046 37.1414 36.2423 37.25 35.9688 37.25C35.6952 37.25 35.4329 37.1414 35.2395 36.948C35.0461 36.7546 34.9375 36.4923 34.9375 36.2188V21.7812ZM39.0625 21.7812C39.0625 21.5077 39.1711 21.2454 39.3645 21.052C39.5579 20.8586 39.8202 20.75 40.0938 20.75H42.1562C42.4298 20.75 42.6921 20.8586 42.8855 21.052C43.0789 21.2454 43.1875 21.5077 43.1875 21.7812V36.2188C43.1875 36.4923 43.0789 36.7546 42.8855 36.948C42.6921 37.1414 42.4298 37.25 42.1562 37.25H40.0938C39.8202 37.25 39.5579 37.1414 39.3645 36.948C39.1711 36.7546 39.0625 36.4923 39.0625 36.2188V21.7812ZM45.25 21.7812C45.25 21.5077 45.3586 21.2454 45.552 21.052C45.7454 20.8586 46.0077 20.75 46.2812 20.75C46.5548 20.75 46.8171 20.8586 47.0105 21.052C47.2039 21.2454 47.3125 21.5077 47.3125 21.7812V36.2188C47.3125 36.4923 47.2039 36.7546 47.0105 36.948C46.8171 37.1414 46.5548 37.25 46.2812 37.25C46.0077 37.25 45.7454 37.1414 45.552 36.948C45.3586 36.7546 45.25 36.4923 45.25 36.2188V21.7812Z" fill="#11B55F" stroke="#11B55F"/>
</svg>
