<svg width="20" height="19" viewBox="0 0 20 19" fill="none" xmlns="http://www.w3.org/2000/svg">
<path fill-rule="evenodd" clip-rule="evenodd" d="M10.5956 0.558403C10.4143 0.454855 10.2092 0.400391 10.0004 0.400391C9.79162 0.400391 9.58647 0.454855 9.40519 0.558403L1.00519 5.3584C0.775596 5.48975 0.595831 5.69327 0.493847 5.93733C0.391863 6.18139 0.373375 6.45231 0.441256 6.70796C0.509138 6.96361 0.659586 7.18967 0.869208 7.35099C1.07883 7.51231 1.33588 7.59985 1.60039 7.6V16C1.28213 16 0.976906 16.1264 0.751862 16.3515C0.526819 16.5765 0.400391 16.8817 0.400391 17.2C0.400391 17.5183 0.526819 17.8235 0.751862 18.0485C0.976906 18.2736 1.28213 18.4 1.60039 18.4H18.4004C18.7187 18.4 19.0239 18.2736 19.2489 18.0485C19.474 17.8235 19.6004 17.5183 19.6004 17.2C19.6004 16.8817 19.474 16.5765 19.2489 16.3515C19.0239 16.1264 18.7187 16 18.4004 16V7.6C18.6649 7.59985 18.922 7.51231 19.1316 7.35099C19.3412 7.18967 19.4916 6.96361 19.5595 6.70796C19.6274 6.45231 19.6089 6.18139 19.5069 5.93733C19.405 5.69327 19.2252 5.48975 18.9956 5.3584L10.5956 0.558403ZM5.20039 8.8C4.88213 8.8 4.57691 8.92643 4.35186 9.15148C4.12682 9.37652 4.00039 9.68174 4.00039 10V13.6C4.00039 13.9183 4.12682 14.2235 4.35186 14.4485C4.57691 14.6736 4.88213 14.8 5.20039 14.8C5.51865 14.8 5.82387 14.6736 6.04892 14.4485C6.27396 14.2235 6.40039 13.9183 6.40039 13.6V10C6.40039 9.68174 6.27396 9.37652 6.04892 9.15148C5.82387 8.92643 5.51865 8.8 5.20039 8.8ZM8.80039 10C8.80039 9.68174 8.92682 9.37652 9.15186 9.15148C9.37691 8.92643 9.68213 8.8 10.0004 8.8C10.3187 8.8 10.6239 8.92643 10.8489 9.15148C11.074 9.37652 11.2004 9.68174 11.2004 10V13.6C11.2004 13.9183 11.074 14.2235 10.8489 14.4485C10.6239 14.6736 10.3187 14.8 10.0004 14.8C9.68213 14.8 9.37691 14.6736 9.15186 14.4485C8.92682 14.2235 8.80039 13.9183 8.80039 13.6V10ZM14.8004 8.8C14.4821 8.8 14.1769 8.92643 13.9519 9.15148C13.7268 9.37652 13.6004 9.68174 13.6004 10V13.6C13.6004 13.9183 13.7268 14.2235 13.9519 14.4485C14.1769 14.6736 14.4821 14.8 14.8004 14.8C15.1187 14.8 15.4239 14.6736 15.6489 14.4485C15.874 14.2235 16.0004 13.9183 16.0004 13.6V10C16.0004 9.68174 15.874 9.37652 15.6489 9.15148C15.4239 8.92643 15.1187 8.8 14.8004 8.8Z" fill="black"/>
</svg>
