<svg width="73" height="73" viewBox="0 0 73 73" fill="none" xmlns="http://www.w3.org/2000/svg">
<path d="M11 11.75C11 11.5511 11.079 11.3603 11.2197 11.2197C11.3603 11.079 11.5511 11 11.75 11H52.25C52.4489 11 52.6397 11.079 52.7803 11.2197C52.921 11.3603 53 11.5511 53 11.75V41.75C53 42.3467 53.2371 42.919 53.659 43.341C54.081 43.7629 54.6533 44 55.25 44C55.8467 44 56.419 43.7629 56.841 43.341C57.2629 42.919 57.5 42.3467 57.5 41.75V11.75C57.5 10.3576 56.9469 9.02226 55.9623 8.03769C54.9777 7.05312 53.6424 6.5 52.25 6.5H11.75C10.3576 6.5 9.02226 7.05312 8.03769 8.03769C7.05312 9.02226 6.5 10.3576 6.5 11.75V61.25C6.5 64.148 8.852 66.5 11.75 66.5H32.75C33.3467 66.5 33.919 66.2629 34.341 65.841C34.7629 65.419 35 64.8467 35 64.25C35 63.6533 34.7629 63.081 34.341 62.659C33.919 62.2371 33.3467 62 32.75 62H11.75C11.5511 62 11.3603 61.921 11.2197 61.7803C11.079 61.6397 11 61.4489 11 61.25V11.75Z" fill="#6F6F6F"/>
<path d="M11 11.75C11 11.5511 11.079 11.3603 11.2197 11.2197C11.3603 11.079 11.5511 11 11.75 11H52.25C52.4489 11 52.6397 11.079 52.7803 11.2197C52.921 11.3603 53 11.5511 53 11.75V41.75C53 42.3467 53.2371 42.919 53.659 43.341C54.081 43.7629 54.6533 44 55.25 44C55.8467 44 56.419 43.7629 56.841 43.341C57.2629 42.919 57.5 42.3467 57.5 41.75V11.75C57.5 10.3576 56.9469 9.02226 55.9623 8.03769C54.9777 7.05312 53.6424 6.5 52.25 6.5H11.75C10.3576 6.5 9.02226 7.05312 8.03769 8.03769C7.05312 9.02226 6.5 10.3576 6.5 11.75V61.25C6.5 64.148 8.852 66.5 11.75 66.5H32.75C33.3467 66.5 33.919 66.2629 34.341 65.841C34.7629 65.419 35 64.8467 35 64.25C35 63.6533 34.7629 63.081 34.341 62.659C33.919 62.2371 33.3467 62 32.75 62H11.75C11.5511 62 11.3603 61.921 11.2197 61.7803C11.079 61.6397 11 61.4489 11 61.25V11.75Z" fill="black" fill-opacity="0.2"/>
<path d="M11 11.75C11 11.5511 11.079 11.3603 11.2197 11.2197C11.3603 11.079 11.5511 11 11.75 11H52.25C52.4489 11 52.6397 11.079 52.7803 11.2197C52.921 11.3603 53 11.5511 53 11.75V41.75C53 42.3467 53.2371 42.919 53.659 43.341C54.081 43.7629 54.6533 44 55.25 44C55.8467 44 56.419 43.7629 56.841 43.341C57.2629 42.919 57.5 42.3467 57.5 41.75V11.75C57.5 10.3576 56.9469 9.02226 55.9623 8.03769C54.9777 7.05312 53.6424 6.5 52.25 6.5H11.75C10.3576 6.5 9.02226 7.05312 8.03769 8.03769C7.05312 9.02226 6.5 10.3576 6.5 11.75V61.25C6.5 64.148 8.852 66.5 11.75 66.5H32.75C33.3467 66.5 33.919 66.2629 34.341 65.841C34.7629 65.419 35 64.8467 35 64.25C35 63.6533 34.7629 63.081 34.341 62.659C33.919 62.2371 33.3467 62 32.75 62H11.75C11.5511 62 11.3603 61.921 11.2197 61.7803C11.079 61.6397 11 61.4489 11 61.25V11.75Z" stroke="#6F6F6F"/>
<path d="M11 11.75C11 11.5511 11.079 11.3603 11.2197 11.2197C11.3603 11.079 11.5511 11 11.75 11H52.25C52.4489 11 52.6397 11.079 52.7803 11.2197C52.921 11.3603 53 11.5511 53 11.75V41.75C53 42.3467 53.2371 42.919 53.659 43.341C54.081 43.7629 54.6533 44 55.25 44C55.8467 44 56.419 43.7629 56.841 43.341C57.2629 42.919 57.5 42.3467 57.5 41.75V11.75C57.5 10.3576 56.9469 9.02226 55.9623 8.03769C54.9777 7.05312 53.6424 6.5 52.25 6.5H11.75C10.3576 6.5 9.02226 7.05312 8.03769 8.03769C7.05312 9.02226 6.5 10.3576 6.5 11.75V61.25C6.5 64.148 8.852 66.5 11.75 66.5H32.75C33.3467 66.5 33.919 66.2629 34.341 65.841C34.7629 65.419 35 64.8467 35 64.25C35 63.6533 34.7629 63.081 34.341 62.659C33.919 62.2371 33.3467 62 32.75 62H11.75C11.5511 62 11.3603 61.921 11.2197 61.7803C11.079 61.6397 11 61.4489 11 61.25V11.75Z" stroke="black" stroke-opacity="0.2"/>
<path d="M19.25 21.5C18.6533 21.5 18.081 21.7371 17.659 22.159C17.2371 22.581 17 23.1533 17 23.75C17 24.3467 17.2371 24.919 17.659 25.341C18.081 25.7629 18.6533 26 19.25 26H44.75C45.3467 26 45.919 25.7629 46.341 25.341C46.7629 24.919 47 24.3467 47 23.75C47 23.1533 46.7629 22.581 46.341 22.159C45.919 21.7371 45.3467 21.5 44.75 21.5H19.25ZM17 35.75C17 35.1533 17.2371 34.581 17.659 34.159C18.081 33.7371 18.6533 33.5 19.25 33.5H32.75C33.3467 33.5 33.919 33.7371 34.341 34.159C34.7629 34.581 35 35.1533 35 35.75C35 36.3467 34.7629 36.919 34.341 37.341C33.919 37.7629 33.3467 38 32.75 38H19.25C18.6533 38 18.081 37.7629 17.659 37.341C17.2371 36.919 17 36.3467 17 35.75ZM65.84 49.34C66.0611 49.134 66.2384 48.8856 66.3613 48.6096C66.4843 48.3336 66.5504 48.0357 66.5558 47.7336C66.5611 47.4315 66.5055 47.1314 66.3924 46.8512C66.2792 46.571 66.1108 46.3165 65.8971 46.1029C65.6835 45.8892 65.429 45.7208 65.1488 45.6076C64.8686 45.4945 64.5685 45.4389 64.2664 45.4442C63.9643 45.4496 63.6664 45.5157 63.3904 45.6387C63.1144 45.7616 62.866 45.9389 62.66 46.16L47.75 61.07L41.84 55.16C41.634 54.9389 41.3856 54.7616 41.1096 54.6387C40.8336 54.5157 40.5357 54.4496 40.2336 54.4442C39.9315 54.4389 39.6314 54.4945 39.3512 54.6076C39.071 54.7208 38.8165 54.8892 38.6029 55.1029C38.3892 55.3165 38.2208 55.571 38.1076 55.8512C37.9945 56.1314 37.9389 56.4315 37.9442 56.7336C37.9496 57.0357 38.0157 57.3336 38.1387 57.6096C38.2616 57.8856 38.4389 58.134 38.66 58.34L46.16 65.84C46.5819 66.2614 47.1537 66.498 47.75 66.498C48.3463 66.498 48.9181 66.2614 49.34 65.84L65.84 49.34Z" fill="#11B55F"/>
</svg>
