<svg width="73" height="73" viewBox="0 0 73 73" fill="none" xmlns="http://www.w3.org/2000/svg">
<path d="M9.36768 68.397H7.11768C5.9242 68.397 4.77961 67.9229 3.9357 67.079C3.09178 66.235 2.61768 65.0905 2.61768 63.897V16.647C2.61768 15.4535 3.09178 14.3089 3.9357 13.465C4.77961 12.6211 5.9242 12.147 7.11768 12.147H9.36768C10.5612 12.147 11.7057 12.6211 12.5497 13.465C13.3936 14.3089 13.8677 15.4535 13.8677 16.647V63.897C13.8677 65.0905 13.3936 66.235 12.5497 67.079C11.7057 67.9229 10.5612 68.397 9.36768 68.397ZM34.1177 25.647C34.1177 24.4535 33.6436 23.3089 32.7997 22.465C31.9557 21.6211 30.8112 21.147 29.6177 21.147H20.6177C19.4242 21.147 18.2796 21.6211 17.4357 22.465C16.5918 23.3089 16.1177 24.4535 16.1177 25.647V29.5845C16.1177 29.7337 16.1769 29.8767 16.2824 29.9822C16.3879 30.0877 16.531 30.147 16.6802 30.147H33.5552C33.7044 30.147 33.8474 30.0877 33.9529 29.9822C34.0584 29.8767 34.1177 29.7337 34.1177 29.5845V25.647ZM16.1177 63.897C16.1177 65.0905 16.5918 66.235 17.4357 67.079C18.2796 67.9229 19.4242 68.397 20.6177 68.397H29.6177C30.8112 68.397 31.9557 67.9229 32.7997 67.079C33.6436 66.235 34.1177 65.0905 34.1177 63.897V59.6782C34.1177 59.6036 34.088 59.5321 34.0353 59.4794C33.9826 59.4266 33.911 59.397 33.8364 59.397H16.3989C16.3243 59.397 16.2528 59.4266 16.2001 59.4794C16.1473 59.5321 16.1177 59.6036 16.1177 59.6782V63.897Z" fill="#6F6F6F"/>
<path d="M9.36768 68.397H7.11768C5.9242 68.397 4.77961 67.9229 3.9357 67.079C3.09178 66.235 2.61768 65.0905 2.61768 63.897V16.647C2.61768 15.4535 3.09178 14.3089 3.9357 13.465C4.77961 12.6211 5.9242 12.147 7.11768 12.147H9.36768C10.5612 12.147 11.7057 12.6211 12.5497 13.465C13.3936 14.3089 13.8677 15.4535 13.8677 16.647V63.897C13.8677 65.0905 13.3936 66.235 12.5497 67.079C11.7057 67.9229 10.5612 68.397 9.36768 68.397ZM34.1177 25.647C34.1177 24.4535 33.6436 23.3089 32.7997 22.465C31.9557 21.6211 30.8112 21.147 29.6177 21.147H20.6177C19.4242 21.147 18.2796 21.6211 17.4357 22.465C16.5918 23.3089 16.1177 24.4535 16.1177 25.647V29.5845C16.1177 29.7337 16.1769 29.8767 16.2824 29.9822C16.3879 30.0877 16.531 30.147 16.6802 30.147H33.5552C33.7044 30.147 33.8474 30.0877 33.9529 29.9822C34.0584 29.8767 34.1177 29.7337 34.1177 29.5845V25.647ZM16.1177 63.897C16.1177 65.0905 16.5918 66.235 17.4357 67.079C18.2796 67.9229 19.4242 68.397 20.6177 68.397H29.6177C30.8112 68.397 31.9557 67.9229 32.7997 67.079C33.6436 66.235 34.1177 65.0905 34.1177 63.897V59.6782C34.1177 59.6036 34.088 59.5321 34.0353 59.4794C33.9826 59.4266 33.911 59.397 33.8364 59.397H16.3989C16.3243 59.397 16.2528 59.4266 16.2001 59.4794C16.1473 59.5321 16.1177 59.6036 16.1177 59.6782V63.897Z" fill="black" fill-opacity="0.2"/>
<path d="M9.36768 68.397H7.11768C5.9242 68.397 4.77961 67.9229 3.9357 67.079C3.09178 66.235 2.61768 65.0905 2.61768 63.897V16.647C2.61768 15.4535 3.09178 14.3089 3.9357 13.465C4.77961 12.6211 5.9242 12.147 7.11768 12.147H9.36768C10.5612 12.147 11.7057 12.6211 12.5497 13.465C13.3936 14.3089 13.8677 15.4535 13.8677 16.647V63.897C13.8677 65.0905 13.3936 66.235 12.5497 67.079C11.7057 67.9229 10.5612 68.397 9.36768 68.397ZM34.1177 25.647C34.1177 24.4535 33.6436 23.3089 32.7997 22.465C31.9557 21.6211 30.8112 21.147 29.6177 21.147H20.6177C19.4242 21.147 18.2796 21.6211 17.4357 22.465C16.5918 23.3089 16.1177 24.4535 16.1177 25.647V29.5845C16.1177 29.7337 16.1769 29.8767 16.2824 29.9822C16.3879 30.0877 16.531 30.147 16.6802 30.147H33.5552C33.7044 30.147 33.8474 30.0877 33.9529 29.9822C34.0584 29.8767 34.1177 29.7337 34.1177 29.5845V25.647ZM16.1177 63.897C16.1177 65.0905 16.5918 66.235 17.4357 67.079C18.2796 67.9229 19.4242 68.397 20.6177 68.397H29.6177C30.8112 68.397 31.9557 67.9229 32.7997 67.079C33.6436 66.235 34.1177 65.0905 34.1177 63.897V59.6782C34.1177 59.6036 34.088 59.5321 34.0353 59.4794C33.9826 59.4266 33.911 59.397 33.8364 59.397H16.3989C16.3243 59.397 16.2528 59.4266 16.2001 59.4794C16.1473 59.5321 16.1177 59.6036 16.1177 59.6782V63.897Z" stroke="#6F6F6F"/>
<path d="M9.36768 68.397H7.11768C5.9242 68.397 4.77961 67.9229 3.9357 67.079C3.09178 66.235 2.61768 65.0905 2.61768 63.897V16.647C2.61768 15.4535 3.09178 14.3089 3.9357 13.465C4.77961 12.6211 5.9242 12.147 7.11768 12.147H9.36768C10.5612 12.147 11.7057 12.6211 12.5497 13.465C13.3936 14.3089 13.8677 15.4535 13.8677 16.647V63.897C13.8677 65.0905 13.3936 66.235 12.5497 67.079C11.7057 67.9229 10.5612 68.397 9.36768 68.397ZM34.1177 25.647C34.1177 24.4535 33.6436 23.3089 32.7997 22.465C31.9557 21.6211 30.8112 21.147 29.6177 21.147H20.6177C19.4242 21.147 18.2796 21.6211 17.4357 22.465C16.5918 23.3089 16.1177 24.4535 16.1177 25.647V29.5845C16.1177 29.7337 16.1769 29.8767 16.2824 29.9822C16.3879 30.0877 16.531 30.147 16.6802 30.147H33.5552C33.7044 30.147 33.8474 30.0877 33.9529 29.9822C34.0584 29.8767 34.1177 29.7337 34.1177 29.5845V25.647ZM16.1177 63.897C16.1177 65.0905 16.5918 66.235 17.4357 67.079C18.2796 67.9229 19.4242 68.397 20.6177 68.397H29.6177C30.8112 68.397 31.9557 67.9229 32.7997 67.079C33.6436 66.235 34.1177 65.0905 34.1177 63.897V59.6782C34.1177 59.6036 34.088 59.5321 34.0353 59.4794C33.9826 59.4266 33.911 59.397 33.8364 59.397H16.3989C16.3243 59.397 16.2528 59.4266 16.2001 59.4794C16.1473 59.5321 16.1177 59.6036 16.1177 59.6782V63.897Z" stroke="black" stroke-opacity="0.2"/>
<path d="M26.9706 63.4999L25.3824 64.5587C24.1889 64.5587 25.1675 65.4027 24.3236 64.5587C23.4797 63.7148 25.9118 66.811 25.9118 65.6176L25.9137 64.5587C25.9137 63.3653 26.1577 63.1393 25.2356 63.897C24.6095 64.4114 24.7202 64.5587 25.9137 64.5587L25.2356 63.897C26.4291 63.897 24.5385 63.1854 25.3824 64.0293C26.2263 64.8732 25.9137 63.3653 25.9137 64.5587L25.9118 65.6176C25.3824 66.147 25.1675 63.7148 24.3236 64.5587C23.4797 65.4027 27.5 65.0882 26.9706 63.4999ZM34.1177 25.647C34.1177 24.4535 33.6436 23.3089 32.7997 22.465C31.9557 21.6211 30.8112 21.147 29.6177 21.147H20.6177C19.4242 21.147 18.2796 21.6211 17.4357 22.465C16.5918 23.3089 16.1177 24.4535 16.1177 25.647V29.5845C16.1177 29.7337 16.1769 29.8767 16.2824 29.9822C16.3879 30.0877 16.531 30.147 16.6802 30.147H33.5552C33.7044 30.147 33.8474 30.0877 33.9529 29.9822C34.0584 29.8767 34.1177 29.7337 34.1177 29.5845V25.647ZM16.1177 63.897C16.1177 65.0904 16.5918 66.235 17.4357 67.079C18.2796 67.9229 19.4242 68.397 20.6177 68.397H29.6177C30.8112 68.397 31.9557 67.9229 32.7997 67.079C33.6436 66.235 34.1177 65.0904 34.1177 63.897V59.6782C34.1177 59.6036 34.088 59.5321 34.0353 59.4793C33.9826 59.4266 33.911 59.397 33.8364 59.397H16.3989C16.3243 59.397 16.2528 59.4266 16.2001 59.4793C16.1473 59.5321 16.1177 59.6036 16.1177 59.6782V63.897Z" fill="#11B55F"/>
<path d="M33.8364 34.647H16.3989C16.2436 34.647 16.1177 34.7729 16.1177 34.9282V54.6157C16.1177 54.7711 16.2436 54.897 16.3989 54.897H33.8364C33.9918 54.897 34.1177 54.7711 34.1177 54.6157V34.9282C34.1177 34.7729 33.9918 34.647 33.8364 34.647Z" fill="#11B55F"/>
<path d="M45.5 68H41C39.8065 68 38.6619 67.5259 37.818 66.682C36.9741 65.8381 36.5 64.6935 36.5 63.5V9.5C36.5 8.30653 36.9741 7.16193 37.818 6.31802C38.6619 5.47411 39.8065 5 41 5H45.5C46.6935 5 47.8381 5.47411 48.682 6.31802C49.5259 7.16193 50 8.30653 50 9.5V63.5C50 64.6935 49.5259 65.8381 48.682 66.682C47.8381 67.5259 46.6935 68 45.5 68ZM70.2345 63.1414L65.7022 15.3289C65.4941 13.1281 63.32 11.532 60.8464 11.7697L56.3675 12.1916C53.8939 12.4264 52.0573 14.4008 52.2655 16.6016L56.7978 64.4141C57.0059 66.6148 59.18 68.2109 61.6536 67.9733L66.1325 67.5514C68.6061 67.3166 70.4427 65.3422 70.2345 63.1414Z" fill="#6F6F6F"/>
<path d="M45.5 68H41C39.8065 68 38.6619 67.5259 37.818 66.682C36.9741 65.8381 36.5 64.6935 36.5 63.5V9.5C36.5 8.30653 36.9741 7.16193 37.818 6.31802C38.6619 5.47411 39.8065 5 41 5H45.5C46.6935 5 47.8381 5.47411 48.682 6.31802C49.5259 7.16193 50 8.30653 50 9.5V63.5C50 64.6935 49.5259 65.8381 48.682 66.682C47.8381 67.5259 46.6935 68 45.5 68ZM70.2345 63.1414L65.7022 15.3289C65.4941 13.1281 63.32 11.532 60.8464 11.7697L56.3675 12.1916C53.8939 12.4264 52.0573 14.4008 52.2655 16.6016L56.7978 64.4141C57.0059 66.6148 59.18 68.2109 61.6536 67.9733L66.1325 67.5514C68.6061 67.3166 70.4427 65.3422 70.2345 63.1414Z" fill="black" fill-opacity="0.2"/>
<path d="M45.5 68H41C39.8065 68 38.6619 67.5259 37.818 66.682C36.9741 65.8381 36.5 64.6935 36.5 63.5V9.5C36.5 8.30653 36.9741 7.16193 37.818 6.31802C38.6619 5.47411 39.8065 5 41 5H45.5C46.6935 5 47.8381 5.47411 48.682 6.31802C49.5259 7.16193 50 8.30653 50 9.5V63.5C50 64.6935 49.5259 65.8381 48.682 66.682C47.8381 67.5259 46.6935 68 45.5 68ZM70.2345 63.1414L65.7022 15.3289C65.4941 13.1281 63.32 11.532 60.8464 11.7697L56.3675 12.1916C53.8939 12.4264 52.0573 14.4008 52.2655 16.6016L56.7978 64.4141C57.0059 66.6148 59.18 68.2109 61.6536 67.9733L66.1325 67.5514C68.6061 67.3166 70.4427 65.3422 70.2345 63.1414Z" stroke="#6F6F6F"/>
<path d="M45.5 68H41C39.8065 68 38.6619 67.5259 37.818 66.682C36.9741 65.8381 36.5 64.6935 36.5 63.5V9.5C36.5 8.30653 36.9741 7.16193 37.818 6.31802C38.6619 5.47411 39.8065 5 41 5H45.5C46.6935 5 47.8381 5.47411 48.682 6.31802C49.5259 7.16193 50 8.30653 50 9.5V63.5C50 64.6935 49.5259 65.8381 48.682 66.682C47.8381 67.5259 46.6935 68 45.5 68ZM70.2345 63.1414L65.7022 15.3289C65.4941 13.1281 63.32 11.532 60.8464 11.7697L56.3675 12.1916C53.8939 12.4264 52.0573 14.4008 52.2655 16.6016L56.7978 64.4141C57.0059 66.6148 59.18 68.2109 61.6536 67.9733L66.1325 67.5514C68.6061 67.3166 70.4427 65.3422 70.2345 63.1414Z" stroke="black" stroke-opacity="0.2"/>
</svg>
