<svg width="73" height="73" viewBox="0 0 73 73" fill="none" xmlns="http://www.w3.org/2000/svg">
<path d="M36.4984 24.5L47.3785 13.224C48.0493 12.543 48.583 11.726 48.9476 10.822C49.3121 9.91798 49.5 8.94561 49.5 7.96312C49.5 6.98064 49.3121 6.00826 48.9476 5.10427C48.583 4.20028 48.0493 3.38329 47.3785 2.70224C46.0261 1.29319 44.2024 0.503124 42.3022 0.503124C40.402 0.503124 38.5783 1.29319 37.2259 2.70224L36.4984 3.44963L35.7709 2.69881C34.419 1.28997 32.5958 0.5 30.6962 0.5C28.7965 0.5 26.9733 1.28997 25.6215 2.69881C24.9507 3.37986 24.417 4.19685 24.0524 5.10084C23.6879 6.00483 23.5 6.97721 23.5 7.95969C23.5 8.94218 23.6879 9.91455 24.0524 10.8185C24.417 11.7225 24.9507 12.5395 25.6215 13.2206L36.4984 24.5Z" fill="#11B55F"/>
<path d="M63.3125 29.4688C54.9539 29.4983 49.128 30.3109 45.2092 31.7577C41.4928 33.1298 39.4671 35.0773 38.5625 37.6533V62.3793C43.2614 59.6932 50.4655 58.1563 63.3125 58.1563V29.4688ZM67.4375 58.1563C67.4375 59.0016 67.0026 59.8122 66.229 60.4099C65.4554 61.0077 64.4065 61.3438 63.3125 61.3438C47.0568 61.3438 41.4693 63.8775 38.1113 67.1211C37.7199 67.4992 37.1266 67.7188 36.5 67.7188C35.8733 67.7187 35.28 67.4974 34.8887 67.119C31.5535 63.8948 25.941 61.3438 9.68751 61.3438C8.44342 61.3438 7.35365 60.9359 6.60719 60.2584C5.88743 59.6047 5.56251 58.7744 5.56251 57.9633V29.4688C5.56149 29.051 5.66806 28.6369 5.87403 28.2506C6.08099 27.8626 6.3843 27.5098 6.76832 27.213L7.0691 27.0014C7.38287 26.8027 7.73465 26.6419 8.11109 26.522C8.61342 26.3621 9.15227 26.2797 9.69556 26.2813L11.2854 26.2958C19.1046 26.4173 25.1341 27.2444 29.5686 28.8815C32.6469 30.018 34.9344 31.5405 36.5 33.4282C38.0656 31.5405 40.3531 30.018 43.4314 28.8815C48.1617 27.1352 54.7081 26.3111 63.3045 26.2813L63.71 26.2958C63.9794 26.3156 64.2456 26.356 64.5049 26.4162L64.8889 26.522L65.2568 26.6548C65.4955 26.7531 65.7217 26.8689 65.9309 27.0014L66.2317 27.213L66.5056 27.4455C66.7628 27.6879 66.9708 27.9597 67.126 28.2506C67.332 28.6369 67.4385 29.051 67.4375 29.4688V58.1563ZM9.68751 57.9633C9.68751 58.0588 9.71017 58.1211 9.72779 58.1563C22.5409 58.1595 29.7476 59.705 34.4375 62.3814V37.6533C33.533 35.0773 31.5072 33.1298 27.7908 31.7577C23.872 30.3109 18.0461 29.4983 9.68751 29.4688V57.9633Z" fill="#6F6F6F"/>
<path d="M63.3125 29.4688C54.9539 29.4983 49.128 30.3109 45.2092 31.7577C41.4928 33.1298 39.4671 35.0773 38.5625 37.6533V62.3793C43.2614 59.6932 50.4655 58.1563 63.3125 58.1563V29.4688ZM67.4375 58.1563C67.4375 59.0016 67.0026 59.8122 66.229 60.4099C65.4554 61.0077 64.4065 61.3438 63.3125 61.3438C47.0568 61.3438 41.4693 63.8775 38.1113 67.1211C37.7199 67.4992 37.1266 67.7188 36.5 67.7188C35.8733 67.7187 35.28 67.4974 34.8887 67.119C31.5535 63.8948 25.941 61.3438 9.68751 61.3438C8.44342 61.3438 7.35365 60.9359 6.60719 60.2584C5.88743 59.6047 5.56251 58.7744 5.56251 57.9633V29.4688C5.56149 29.051 5.66806 28.6369 5.87403 28.2506C6.08099 27.8626 6.3843 27.5098 6.76832 27.213L7.0691 27.0014C7.38287 26.8027 7.73465 26.6419 8.11109 26.522C8.61342 26.3621 9.15227 26.2797 9.69556 26.2813L11.2854 26.2958C19.1046 26.4173 25.1341 27.2444 29.5686 28.8815C32.6469 30.018 34.9344 31.5405 36.5 33.4282C38.0656 31.5405 40.3531 30.018 43.4314 28.8815C48.1617 27.1352 54.7081 26.3111 63.3045 26.2813L63.71 26.2958C63.9794 26.3156 64.2456 26.356 64.5049 26.4162L64.8889 26.522L65.2568 26.6548C65.4955 26.7531 65.7217 26.8689 65.9309 27.0014L66.2317 27.213L66.5056 27.4455C66.7628 27.6879 66.9708 27.9597 67.126 28.2506C67.332 28.6369 67.4385 29.051 67.4375 29.4688V58.1563ZM9.68751 57.9633C9.68751 58.0588 9.71017 58.1211 9.72779 58.1563C22.5409 58.1595 29.7476 59.705 34.4375 62.3814V37.6533C33.533 35.0773 31.5072 33.1298 27.7908 31.7577C23.872 30.3109 18.0461 29.4983 9.68751 29.4688V57.9633Z" fill="black" fill-opacity="0.2"/>
</svg>
